<?xml version="1.0" encoding="utf-8"?>
<svg viewBox="0 0 124.44 144.00" id="svg2" version="1.1" xmlns="http://www.w3.org/2000/svg">
  <defs id="defs4">
    <style type="text/css" id="style6">
    line, polyline, path, rect, circle {
      fill: none;
      stroke: #000000;
      stroke-linecap: round;
      stroke-linejoin: round;
      stroke-miterlimit: 10.00;
    }
  </style>
  </defs>
  <polyline points="2.285 37.429 2.285 106.799 62.105 141.486 121.926 106.799 121.926 37.429 62.105 2.743 2.285 37.429" style="stroke-width: 4; fill-opacity: 0.8; stroke: rgb(32, 114, 69);" clip-path="url(#cpMHwxMjQuNDQxfDE0My45OTd8MC4xNDMxMzc=)" id="polyline29"/>
  <text transform="matrix(0.866025, -0.5, 0.5, 0.866026, 48.054104, 87.293541)" style="fill: rgb(32, 114, 69); font-family: &quot;Segoe UI&quot;; font-size: 7px; white-space: pre;" x="0" y="50">www.ardata.fr</text>
  <text style="fill: rgb(32, 114, 69); font-family: &quot;Segoe UI&quot;; font-size: 22px; letter-spacing: 0.3px; white-space: pre;" x="22.405" y="97.928">mschart</text>
  <g transform="matrix(1, 0, 0, 1, 5.145822, -64.040977)">
    <rect x="20" y="117.075" width="10" height="26.925" style="stroke: none; fill: rgb(32, 114, 69);"/>
    <rect x="34.972" y="131.684" width="10" height="12.316" style="stroke: none; fill: rgb(32, 114, 69);"/>
    <rect x="49.972" y="110.836" width="10" height="33.164" style="stroke: none; fill: rgb(32, 114, 69);"/>
    <rect x="64.972" y="119.62" width="10" height="24.38" style="stroke: none; fill: rgb(32, 114, 69);"/>
  </g>
  <g transform="matrix(0.300002, 0, 0, 0.300002, 80.589119, 57.574688)">
    <path d="M 35.001 35.631 L 37.7 35.631 C 37.7 36.844 37.7 38.053 37.7 39.266 C 42.249 39.266 46.797 39.275 51.346 39.252 C 52.113 39.284 52.959 39.23 53.627 39.689 C 54.095 40.361 54.04 41.215 54.072 41.988 C 54.049 49.876 54.058 57.76 54.063 65.643 C 54.04 66.966 54.185 68.315 53.908 69.619 C 53.727 70.565 52.591 70.587 51.832 70.619 C 47.124 70.633 42.412 70.61 37.7 70.619 C 37.7 71.982 37.7 73.345 37.7 74.709 L 34.878 74.709 C 27.954 73.45 21.015 72.287 14.081 71.073 C 14.081 60.473 14.081 49.872 14.081 39.271 C 21.056 38.057 28.031 36.862 35.001 35.631 Z" id="path10" style="fill: rgb(32, 114, 69); stroke: none;"/>
    <path d="M 37.7 40.629 C 42.699 40.629 47.697 40.629 52.695 40.629 C 52.695 50.171 52.695 59.714 52.695 69.256 C 47.697 69.256 42.699 69.256 37.7 69.256 C 37.7 68.347 37.7 67.438 37.7 66.53 C 38.913 66.53 40.122 66.53 41.335 66.53 C 41.335 65.471 41.335 64.408 41.335 63.349 C 40.122 63.349 38.913 63.349 37.7 63.349 C 37.7 62.744 37.7 62.136 37.7 61.531 C 38.913 61.531 40.122 61.531 41.335 61.531 C 41.335 60.473 41.335 59.409 41.335 58.351 C 40.122 58.351 38.913 58.351 37.7 58.351 C 37.7 57.746 37.7 57.137 37.7 56.533 C 38.913 56.533 40.122 56.533 41.335 56.533 C 41.335 55.474 41.335 54.411 41.335 53.352 C 40.122 53.352 38.913 53.352 37.7 53.352 C 37.7 52.748 37.7 52.139 37.7 51.535 C 38.913 51.535 40.122 51.535 41.335 51.535 C 41.335 50.476 41.335 49.413 41.335 48.354 C 40.122 48.354 38.913 48.354 37.7 48.354 C 37.7 47.75 37.7 47.141 37.7 46.536 C 38.913 46.536 40.122 46.536 41.335 46.536 C 41.335 45.478 41.335 44.414 41.335 43.356 C 40.122 43.356 38.913 43.356 37.7 43.356 C 37.7 42.447 37.7 41.538 37.7 40.629 Z" id="path48" style="fill: rgb(255, 255, 255); stroke: none;"/>
    <path d="M 43.153 43.356 C 45.275 43.356 47.392 43.356 49.514 43.356 C 49.514 44.414 49.514 45.478 49.514 46.536 C 47.392 46.536 45.275 46.536 43.153 46.536 C 43.153 45.478 43.153 44.414 43.153 43.356 Z" id="path58" style="fill: rgb(32, 114, 69); stroke: none;"/>
    <path d="M 27.54 47.613 C 28.567 47.541 29.598 47.477 30.63 47.427 C 29.417 49.912 28.199 52.398 26.963 54.874 C 28.213 57.419 29.489 59.945 30.743 62.49 C 29.648 62.426 28.558 62.358 27.463 62.281 C 26.69 60.386 25.75 58.555 25.195 56.574 C 24.577 58.419 23.696 60.159 22.987 61.967 C 21.992 61.954 20.997 61.913 20.002 61.872 C 21.169 59.586 22.296 57.283 23.501 55.011 C 22.478 52.671 21.356 50.376 20.302 48.049 C 21.301 47.99 22.301 47.931 23.301 47.877 C 23.978 49.653 24.718 51.407 25.277 53.23 C 25.877 51.298 26.772 49.481 27.54 47.613 Z" id="path72" style="fill: rgb(255, 255, 255); stroke: none;"/>
    <path d="M 43.153 48.354 C 45.275 48.354 47.392 48.354 49.514 48.354 C 49.514 49.413 49.514 50.476 49.514 51.535 C 47.392 51.535 45.275 51.535 43.153 51.535 C 43.153 50.476 43.153 49.413 43.153 48.354 Z" id="path90" style="fill: rgb(32, 114, 69); stroke: none;"/>
    <path d="M 43.153 53.352 C 45.275 53.352 47.392 53.352 49.514 53.352 C 49.514 54.411 49.514 55.474 49.514 56.533 C 47.392 56.533 45.275 56.533 43.153 56.533 C 43.153 55.474 43.153 54.411 43.153 53.352 Z" id="path108" style="fill: rgb(32, 114, 69); stroke: none;"/>
    <path d="M 43.153 58.351 C 45.275 58.351 47.392 58.351 49.514 58.351 C 49.514 59.409 49.514 60.473 49.514 61.531 C 47.392 61.531 45.275 61.531 43.153 61.531 C 43.153 60.473 43.153 59.409 43.153 58.351 Z" id="path114" style="fill: rgb(32, 114, 69); stroke: none;"/>
    <path d="M 43.153 63.349 C 45.275 63.349 47.392 63.349 49.514 63.349 C 49.514 64.408 49.514 65.471 49.514 66.53 C 47.392 66.53 45.275 66.53 43.153 66.53 C 43.153 65.471 43.153 64.408 43.153 63.349 Z" id="path120" style="fill: rgb(32, 114, 69); stroke: none;"/>
  </g>
</svg>